<mxfile host="app.diagrams.net" modified="2021-04-11T18:01:50.980Z" agent="5.0 (Windows NT 10.0; Win64; x64) AppleWebKit/537.36 (KHTML, like Gecko) Chrome/89.0.4389.114 Safari/537.36" etag="hKdVtmecwzJTWvUBjtur" version="14.5.10" type="github">
  <diagram name="Page-1" id="edf60f1a-56cd-e834-aa8a-f176f3a09ee4">
    <mxGraphModel dx="1422" dy="762" grid="1" gridSize="10" guides="1" tooltips="1" connect="1" arrows="1" fold="1" page="1" pageScale="1" pageWidth="1100" pageHeight="850" background="#ffffff" math="0" shadow="0">
      <root>
        <mxCell id="0" />
        <mxCell id="1" parent="0" />
        <mxCell id="YIvmek2fyZ96y0kqWUnA-6" value="" style="edgeStyle=orthogonalEdgeStyle;rounded=0;orthogonalLoop=1;jettySize=auto;html=1;" edge="1" parent="1" source="YIvmek2fyZ96y0kqWUnA-1" target="YIvmek2fyZ96y0kqWUnA-5">
          <mxGeometry relative="1" as="geometry" />
        </mxCell>
        <mxCell id="YIvmek2fyZ96y0kqWUnA-1" value="Charging?" style="rhombus;whiteSpace=wrap;html=1;" vertex="1" parent="1">
          <mxGeometry x="420" y="110" width="80" height="80" as="geometry" />
        </mxCell>
        <mxCell id="YIvmek2fyZ96y0kqWUnA-3" value="Yes" style="text;html=1;strokeColor=none;fillColor=none;align=center;verticalAlign=middle;whiteSpace=wrap;rounded=0;" vertex="1" parent="1">
          <mxGeometry x="520" y="140" width="40" height="20" as="geometry" />
        </mxCell>
        <mxCell id="YIvmek2fyZ96y0kqWUnA-9" value="" style="edgeStyle=orthogonalEdgeStyle;rounded=0;orthogonalLoop=1;jettySize=auto;html=1;" edge="1" parent="1" source="YIvmek2fyZ96y0kqWUnA-5" target="YIvmek2fyZ96y0kqWUnA-8">
          <mxGeometry relative="1" as="geometry" />
        </mxCell>
        <mxCell id="YIvmek2fyZ96y0kqWUnA-26" value="" style="edgeStyle=orthogonalEdgeStyle;rounded=0;orthogonalLoop=1;jettySize=auto;html=1;" edge="1" parent="1" source="YIvmek2fyZ96y0kqWUnA-5" target="YIvmek2fyZ96y0kqWUnA-25">
          <mxGeometry relative="1" as="geometry" />
        </mxCell>
        <mxCell id="YIvmek2fyZ96y0kqWUnA-5" value="Chargeable light?" style="rhombus;whiteSpace=wrap;html=1;" vertex="1" parent="1">
          <mxGeometry x="420" y="240" width="80" height="80" as="geometry" />
        </mxCell>
        <mxCell id="YIvmek2fyZ96y0kqWUnA-47" style="edgeStyle=orthogonalEdgeStyle;rounded=0;orthogonalLoop=1;jettySize=auto;html=1;exitX=0;exitY=0.5;exitDx=0;exitDy=0;entryX=0;entryY=0.5;entryDx=0;entryDy=0;" edge="1" parent="1" source="YIvmek2fyZ96y0kqWUnA-8" target="YIvmek2fyZ96y0kqWUnA-1">
          <mxGeometry relative="1" as="geometry" />
        </mxCell>
        <mxCell id="YIvmek2fyZ96y0kqWUnA-8" value="Sleep for ten minutes" style="whiteSpace=wrap;html=1;" vertex="1" parent="1">
          <mxGeometry x="240" y="250" width="120" height="60" as="geometry" />
        </mxCell>
        <mxCell id="YIvmek2fyZ96y0kqWUnA-28" value="" style="edgeStyle=orthogonalEdgeStyle;rounded=0;orthogonalLoop=1;jettySize=auto;html=1;" edge="1" parent="1" source="YIvmek2fyZ96y0kqWUnA-25" target="YIvmek2fyZ96y0kqWUnA-27">
          <mxGeometry relative="1" as="geometry" />
        </mxCell>
        <mxCell id="YIvmek2fyZ96y0kqWUnA-37" value="" style="edgeStyle=orthogonalEdgeStyle;rounded=0;orthogonalLoop=1;jettySize=auto;html=1;" edge="1" parent="1" source="YIvmek2fyZ96y0kqWUnA-25" target="YIvmek2fyZ96y0kqWUnA-36">
          <mxGeometry relative="1" as="geometry" />
        </mxCell>
        <mxCell id="YIvmek2fyZ96y0kqWUnA-25" value="Front/back check" style="rhombus;whiteSpace=wrap;html=1;" vertex="1" parent="1">
          <mxGeometry x="420" y="400" width="80" height="80" as="geometry" />
        </mxCell>
        <mxCell id="YIvmek2fyZ96y0kqWUnA-29" style="edgeStyle=orthogonalEdgeStyle;rounded=0;orthogonalLoop=1;jettySize=auto;html=1;exitX=0;exitY=0.5;exitDx=0;exitDy=0;entryX=0.5;entryY=0;entryDx=0;entryDy=0;" edge="1" parent="1" source="YIvmek2fyZ96y0kqWUnA-27" target="YIvmek2fyZ96y0kqWUnA-1">
          <mxGeometry relative="1" as="geometry">
            <Array as="points">
              <mxPoint x="220" y="440" />
              <mxPoint x="220" y="80" />
              <mxPoint x="460" y="80" />
            </Array>
          </mxGeometry>
        </mxCell>
        <mxCell id="YIvmek2fyZ96y0kqWUnA-27" value="Turn 180" style="whiteSpace=wrap;html=1;" vertex="1" parent="1">
          <mxGeometry x="240" y="410" width="120" height="60" as="geometry" />
        </mxCell>
        <mxCell id="YIvmek2fyZ96y0kqWUnA-30" style="edgeStyle=orthogonalEdgeStyle;rounded=0;orthogonalLoop=1;jettySize=auto;html=1;exitX=1;exitY=0.5;exitDx=0;exitDy=0;entryX=0.5;entryY=0;entryDx=0;entryDy=0;" edge="1" parent="1" source="YIvmek2fyZ96y0kqWUnA-1" target="YIvmek2fyZ96y0kqWUnA-1">
          <mxGeometry relative="1" as="geometry">
            <Array as="points">
              <mxPoint x="520" y="150" />
              <mxPoint x="520" y="90" />
              <mxPoint x="460" y="90" />
            </Array>
          </mxGeometry>
        </mxCell>
        <mxCell id="YIvmek2fyZ96y0kqWUnA-33" value="No" style="text;html=1;strokeColor=none;fillColor=none;align=center;verticalAlign=middle;whiteSpace=wrap;rounded=0;" vertex="1" parent="1">
          <mxGeometry x="380" y="250" width="40" height="20" as="geometry" />
        </mxCell>
        <mxCell id="YIvmek2fyZ96y0kqWUnA-34" value="Yes" style="text;html=1;strokeColor=none;fillColor=none;align=center;verticalAlign=middle;whiteSpace=wrap;rounded=0;" vertex="1" parent="1">
          <mxGeometry x="470" y="340" width="40" height="20" as="geometry" />
        </mxCell>
        <mxCell id="YIvmek2fyZ96y0kqWUnA-35" value="Back" style="text;html=1;strokeColor=none;fillColor=none;align=center;verticalAlign=middle;whiteSpace=wrap;rounded=0;" vertex="1" parent="1">
          <mxGeometry x="380" y="410" width="40" height="20" as="geometry" />
        </mxCell>
        <mxCell id="YIvmek2fyZ96y0kqWUnA-39" value="" style="edgeStyle=orthogonalEdgeStyle;rounded=0;orthogonalLoop=1;jettySize=auto;html=1;" edge="1" parent="1" source="YIvmek2fyZ96y0kqWUnA-36" target="YIvmek2fyZ96y0kqWUnA-38">
          <mxGeometry relative="1" as="geometry" />
        </mxCell>
        <mxCell id="YIvmek2fyZ96y0kqWUnA-41" value="" style="edgeStyle=orthogonalEdgeStyle;rounded=0;orthogonalLoop=1;jettySize=auto;html=1;" edge="1" parent="1" source="YIvmek2fyZ96y0kqWUnA-36" target="YIvmek2fyZ96y0kqWUnA-40">
          <mxGeometry relative="1" as="geometry" />
        </mxCell>
        <mxCell id="YIvmek2fyZ96y0kqWUnA-43" value="" style="edgeStyle=orthogonalEdgeStyle;rounded=0;orthogonalLoop=1;jettySize=auto;html=1;" edge="1" parent="1" source="YIvmek2fyZ96y0kqWUnA-36" target="YIvmek2fyZ96y0kqWUnA-42">
          <mxGeometry relative="1" as="geometry" />
        </mxCell>
        <mxCell id="YIvmek2fyZ96y0kqWUnA-36" value="Left/Right check" style="rhombus;whiteSpace=wrap;html=1;" vertex="1" parent="1">
          <mxGeometry x="420" y="560" width="80" height="80" as="geometry" />
        </mxCell>
        <mxCell id="YIvmek2fyZ96y0kqWUnA-46" style="edgeStyle=orthogonalEdgeStyle;rounded=0;orthogonalLoop=1;jettySize=auto;html=1;exitX=0;exitY=0.5;exitDx=0;exitDy=0;entryX=0.5;entryY=0;entryDx=0;entryDy=0;" edge="1" parent="1" source="YIvmek2fyZ96y0kqWUnA-38" target="YIvmek2fyZ96y0kqWUnA-1">
          <mxGeometry relative="1" as="geometry">
            <Array as="points">
              <mxPoint x="220" y="600" />
              <mxPoint x="220" y="80" />
              <mxPoint x="460" y="80" />
            </Array>
          </mxGeometry>
        </mxCell>
        <mxCell id="YIvmek2fyZ96y0kqWUnA-38" value="Turn left 20 degrees" style="whiteSpace=wrap;html=1;" vertex="1" parent="1">
          <mxGeometry x="240" y="570" width="120" height="60" as="geometry" />
        </mxCell>
        <mxCell id="YIvmek2fyZ96y0kqWUnA-48" style="edgeStyle=orthogonalEdgeStyle;rounded=0;orthogonalLoop=1;jettySize=auto;html=1;exitX=1;exitY=0.5;exitDx=0;exitDy=0;entryX=0.5;entryY=0;entryDx=0;entryDy=0;" edge="1" parent="1" source="YIvmek2fyZ96y0kqWUnA-40" target="YIvmek2fyZ96y0kqWUnA-1">
          <mxGeometry relative="1" as="geometry">
            <Array as="points">
              <mxPoint x="700" y="600" />
              <mxPoint x="700" y="80" />
              <mxPoint x="460" y="80" />
            </Array>
          </mxGeometry>
        </mxCell>
        <mxCell id="YIvmek2fyZ96y0kqWUnA-40" value="Turn right 20 degrees" style="whiteSpace=wrap;html=1;" vertex="1" parent="1">
          <mxGeometry x="560" y="570" width="120" height="60" as="geometry" />
        </mxCell>
        <mxCell id="YIvmek2fyZ96y0kqWUnA-50" style="edgeStyle=orthogonalEdgeStyle;rounded=0;orthogonalLoop=1;jettySize=auto;html=1;exitX=1;exitY=0.5;exitDx=0;exitDy=0;entryX=0.5;entryY=0;entryDx=0;entryDy=0;" edge="1" parent="1" source="YIvmek2fyZ96y0kqWUnA-42" target="YIvmek2fyZ96y0kqWUnA-1">
          <mxGeometry relative="1" as="geometry">
            <Array as="points">
              <mxPoint x="700" y="760" />
              <mxPoint x="700" y="80" />
              <mxPoint x="460" y="80" />
            </Array>
          </mxGeometry>
        </mxCell>
        <mxCell id="YIvmek2fyZ96y0kqWUnA-42" value="Drive forward 2 seconds" style="whiteSpace=wrap;html=1;" vertex="1" parent="1">
          <mxGeometry x="400" y="730" width="120" height="60" as="geometry" />
        </mxCell>
        <mxCell id="YIvmek2fyZ96y0kqWUnA-44" value="Left has more light" style="text;html=1;strokeColor=none;fillColor=none;align=center;verticalAlign=middle;whiteSpace=wrap;rounded=0;" vertex="1" parent="1">
          <mxGeometry x="380" y="550" width="40" height="20" as="geometry" />
        </mxCell>
        <mxCell id="YIvmek2fyZ96y0kqWUnA-45" value="Right has more light" style="text;html=1;strokeColor=none;fillColor=none;align=center;verticalAlign=middle;whiteSpace=wrap;rounded=0;" vertex="1" parent="1">
          <mxGeometry x="500" y="550" width="40" height="20" as="geometry" />
        </mxCell>
        <mxCell id="YIvmek2fyZ96y0kqWUnA-49" value="Roughly equal" style="text;html=1;strokeColor=none;fillColor=none;align=center;verticalAlign=middle;whiteSpace=wrap;rounded=0;" vertex="1" parent="1">
          <mxGeometry x="470" y="670" width="40" height="20" as="geometry" />
        </mxCell>
      </root>
    </mxGraphModel>
  </diagram>
</mxfile>
